<svg width="64" height="96" viewBox="0 0 64 96" xmlns="http://www.w3.org/2000/svg">
  <!-- 地面阴影 -->
  <ellipse cx="32" cy="90" rx="28" ry="4" fill="#000000" opacity="0.2"/>
  
  <!-- 树干 -->
  <rect x="26" y="60" width="12" height="36" fill="#8D6E63"/>
  <rect x="27" y="61" width="10" height="34" fill="#A1887F"/>
  
  <!-- 树干纹理 -->
  <rect x="28" y="65" width="8" height="2" fill="#6D4C41"/>
  <rect x="28" y="70" width="8" height="2" fill="#6D4C41"/>
  <rect x="28" y="75" width="8" height="2" fill="#6D4C41"/>
  <rect x="28" y="80" width="8" height="2" fill="#6D4C41"/>
  <rect x="28" y="85" width="8" height="2" fill="#6D4C41"/>
  <rect x="28" y="90" width="8" height="2" fill="#6D4C41"/>
  
  <!-- 树根 -->
  <ellipse cx="20" cy="94" rx="8" ry="2" fill="#795548"/>
  <ellipse cx="44" cy="94" rx="8" ry="2" fill="#795548"/>
  <ellipse cx="32" cy="96" rx="12" ry="2" fill="#795548"/>
  
  <!-- 主要树叶 -->
  <circle cx="32" cy="48" r="20" fill="#4CAF50"/>
  <circle cx="20" cy="52" r="12" fill="#388E3C"/>
  <circle cx="44" cy="52" r="12" fill="#388E3C"/>
  <circle cx="32" cy="36" r="14" fill="#66BB6A"/>
  
  <!-- 树叶细节 -->
  <circle cx="28" cy="44" r="6" fill="#2E7D32"/>
  <circle cx="36" cy="44" r="6" fill="#2E7D32"/>
  <circle cx="24" cy="56" r="4" fill="#2E7D32"/>
  <circle cx="40" cy="56" r="4" fill="#2E7D32"/>
  
  <!-- 树屋平台 -->
  <rect x="16" y="48" width="32" height="4" fill="#8D6E63"/>
  <rect x="17" y="49" width="30" height="2" fill="#A1887F"/>
  
  <!-- 树屋墙体 -->
  <rect x="20" y="32" width="24" height="16" fill="#EFEBE9"/>
  
  <!-- 树屋屋顶 -->
  <polygon points="18,32 32,20 46,32" fill="#6D4C41"/>
  <polygon points="18,32 32,20 34,22 20,32" fill="#795548"/>
  
  <!-- 屋顶瓦片 -->
  <rect x="20" y="24" width="24" height="1" fill="#5D4037"/>
  <rect x="20" y="26" width="24" height="1" fill="#5D4037"/>
  <rect x="20" y="28" width="24" height="1" fill="#5D4037"/>
  <rect x="20" y="30" width="24" height="1" fill="#5D4037"/>
  
  <!-- 树屋门 -->
  <rect x="28" y="40" width="8" height="8" fill="#6D4C41"/>
  <rect x="29" y="41" width="6" height="6" fill="#795548"/>
  <circle cx="34" cy="44" r="0.5" fill="#FFD700"/>
  
  <!-- 树屋窗户 -->
  <circle cx="24" cy="36" r="3" fill="#81D4FA"/>
  <circle cx="24" cy="36" r="3.5" fill="#5D4037"/>
  <circle cx="24" cy="36" r="3" fill="#81D4FA"/>
  <line x1="21" y1="36" x2="27" y2="36" stroke="#5D4037" stroke-width="0.5"/>
  <line x1="24" y1="33" x2="24" y2="39" stroke="#5D4037" stroke-width="0.5"/>
  
  <circle cx="40" cy="36" r="3" fill="#81D4FA"/>
  <circle cx="40" cy="36" r="3.5" fill="#5D4037"/>
  <circle cx="40" cy="36" r="3" fill="#81D4FA"/>
  <line x1="37" y1="36" x2="43" y2="36" stroke="#5D4037" stroke-width="0.5"/>
  <line x1="40" y1="33" x2="40" y2="39" stroke="#5D4037" stroke-width="0.5"/>
  
  <!-- 窗户反光 -->
  <circle cx="23" cy="35" r="1" fill="#FFFFFF" opacity="0.6"/>
  <circle cx="39" cy="35" r="1" fill="#FFFFFF" opacity="0.6"/>
  
  <!-- 绳梯 -->
  <rect x="30" y="48" width="1" height="20" fill="#8D6E63"/>
  <rect x="33" y="48" width="1" height="20" fill="#8D6E63"/>
  <rect x="30" y="52" width="4" height="1" fill="#A1887F"/>
  <rect x="30" y="56" width="4" height="1" fill="#A1887F"/>
  <rect x="30" y="60" width="4" height="1" fill="#A1887F"/>
  <rect x="30" y="64" width="4" height="1" fill="#A1887F"/>
  
  <!-- 树枝支撑 -->
  <rect x="14" y="46" width="8" height="2" fill="#795548"/>
  <rect x="42" y="46" width="8" height="2" fill="#795548"/>
  
  <!-- 鸟窝装饰 -->
  <circle cx="12" cy="40" r="2" fill="#8D6E63"/>
  <circle cx="12" cy="39" r="1" fill="#FFEB3B"/>
  
  <!-- 苹果装饰 -->
  <circle cx="48" cy="44" r="1.5" fill="#F44336"/>
  <circle cx="52" cy="48" r="1.5" fill="#F44336"/>
  
  <!-- 地面草地 -->
  <rect x="0" y="92" width="64" height="4" fill="#4CAF50"/>
  
  <!-- 小花装饰 -->
  <circle cx="8" cy="94" r="0.5" fill="#E91E63"/>
  <circle cx="16" cy="93" r="0.5" fill="#FFEB3B"/>
  <circle cx="48" cy="94" r="0.5" fill="#2196F3"/>
  <circle cx="56" cy="93" r="0.5" fill="#E91E63"/>
</svg>