<svg width="16" height="16" viewBox="0 0 16 16" xmlns="http://www.w3.org/2000/svg">
  <!-- 沙地背景 -->
  <rect width="16" height="16" fill="#FFC107"/>
  
  <!-- 沙粒纹理细节 -->
  <rect x="1" y="1" width="1" height="1" fill="#FFD54F"/>
  <rect x="3" y="2" width="1" height="1" fill="#FFD54F"/>
  <rect x="6" y="1" width="1" height="1" fill="#FFD54F"/>
  <rect x="8" y="3" width="1" height="1" fill="#FFD54F"/>
  <rect x="11" y="2" width="1" height="1" fill="#FFD54F"/>
  <rect x="14" y="1" width="1" height="1" fill="#FFD54F"/>
  
  <rect x="0" y="4" width="1" height="1" fill="#FFD54F"/>
  <rect x="2" y="5" width="1" height="1" fill="#FFD54F"/>
  <rect x="5" y="4" width="1" height="1" fill="#FFD54F"/>
  <rect x="7" y="6" width="1" height="1" fill="#FFD54F"/>
  <rect x="10" y="5" width="1" height="1" fill="#FFD54F"/>
  <rect x="13" y="4" width="1" height="1" fill="#FFD54F"/>
  <rect x="15" y="6" width="1" height="1" fill="#FFD54F"/>
  
  <rect x="1" y="8" width="1" height="1" fill="#FFD54F"/>
  <rect x="4" y="9" width="1" height="1" fill="#FFD54F"/>
  <rect x="6" y="7" width="1" height="1" fill="#FFD54F"/>
  <rect x="9" y="8" width="1" height="1" fill="#FFD54F"/>
  <rect x="12" y="9" width="1" height="1" fill="#FFD54F"/>
  <rect x="14" y="7" width="1" height="1" fill="#FFD54F"/>
  
  <rect x="0" y="11" width="1" height="1" fill="#FFD54F"/>
  <rect x="3" y="12" width="1" height="1" fill="#FFD54F"/>
  <rect x="5" y="13" width="1" height="1" fill="#FFD54F"/>
  <rect x="8" y="11" width="1" height="1" fill="#FFD54F"/>
  <rect x="11" y="13" width="1" height="1" fill="#FFD54F"/>
  <rect x="13" y="12" width="1" height="1" fill="#FFD54F"/>
  <rect x="15" y="14" width="1" height="1" fill="#FFD54F"/>
  
  <!-- 贝壳和小石子 -->
  <rect x="4" y="3" width="1" height="1" fill="#FFFFFF"/>
  <rect x="9" y="6" width="1" height="1" fill="#E0E0E0"/>
  <rect x="2" y="10" width="1" height="1" fill="#FFFFFF"/>
  <rect x="12" y="7" width="1" height="1" fill="#E0E0E0"/>
  <rect x="7" y="14" width="1" height="1" fill="#FFFFFF"/>
  
  <!-- 沙波纹 -->
  <rect x="0" y="3" width="16" height="1" fill="#FFCA28" opacity="0.5"/>
  <rect x="0" y="7" width="16" height="1" fill="#FFCA28" opacity="0.5"/>
  <rect x="0" y="11" width="16" height="1" fill="#FFCA28" opacity="0.5"/>
  
  <!-- 阴影 -->
  <rect x="0" y="15" width="1" height="1" fill="#FF8F00"/>
  <rect x="2" y="15" width="1" height="1" fill="#FF8F00"/>
  <rect x="4" y="15" width="1" height="1" fill="#FF8F00"/>
  <rect x="6" y="15" width="1" height="1" fill="#FF8F00"/>
  <rect x="8" y="15" width="1" height="1" fill="#FF8F00"/>
  <rect x="10" y="15" width="1" height="1" fill="#FF8F00"/>
  <rect x="12" y="15" width="1" height="1" fill="#FF8F00"/>
  <rect x="14" y="15" width="1" height="1" fill="#FF8F00"/>
</svg>