<svg width="200" height="200" viewBox="0 0 200 200" xmlns="http://www.w3.org/2000/svg">
  <!-- Ground shadow -->
  <ellipse cx="100" cy="185" rx="50" ry="7" fill="#000000" opacity="0.3"/>
  
  <!-- Ground area -->
  <ellipse cx="100" cy="185" rx="48" ry="6" fill="#8FBC8F"/>
  <ellipse cx="100" cy="185" rx="45" ry="5" fill="#90EE90"/>
  <ellipse cx="100" cy="185" rx="42" ry="4" fill="#98FB98"/>
  
  <!-- River water (flowing path) -->
  <path d="M 20 50 Q 60 80 100 100 Q 140 120 180 150" stroke="#4682B4" stroke-width="25" fill="none"/>
  <path d="M 20 50 Q 60 80 100 100 Q 140 120 180 150" stroke="#5F9EA0" stroke-width="22" fill="none"/>
  <path d="M 20 50 Q 60 80 100 100 Q 140 120 180 150" stroke="#87CEEB" stroke-width="19" fill="none"/>
  <path d="M 20 50 Q 60 80 100 100 Q 140 120 180 150" stroke="#B0E0E6" stroke-width="16" fill="none"/>
  <path d="M 20 50 Q 60 80 100 100 Q 140 120 180 150" stroke="#E0F6FF" stroke-width="13" fill="none"/>
  
  <!-- River depth gradient -->
  <path d="M 20 50 Q 60 80 100 100 Q 140 120 180 150" stroke="#4169E1" stroke-width="13" fill="none" opacity="0.3"/>
  <path d="M 20 50 Q 60 80 100 100 Q 140 120 180 150" stroke="#191970" stroke-width="10" fill="none" opacity="0.2"/>
  <path d="M 20 50 Q 60 80 100 100 Q 140 120 180 150" stroke="#000080" stroke-width="7" fill="none" opacity="0.15"/>
  <path d="M 20 50 Q 60 80 100 100 Q 140 120 180 150" stroke="#00008B" stroke-width="4" fill="none" opacity="0.1"/>
  
  <!-- Water flow lines -->
  <path d="M 25 48 Q 65 78 105 98 Q 145 118 185 148" stroke="#FFFFFF" stroke-width="1.5" fill="none" opacity="0.6"/>
  <path d="M 22 52 Q 62 82 102 102 Q 142 122 182 152" stroke="#FFFFFF" stroke-width="1.2" fill="none" opacity="0.5"/>
  <path d="M 18 50 Q 58 80 98 100 Q 138 120 178 150" stroke="#FFFFFF" stroke-width="1" fill="none" opacity="0.4"/>
  
  <!-- Water surface reflections -->
  <ellipse cx="40" cy="60" rx="8" ry="3" fill="#FFFFFF" opacity="0.5"/>
  <ellipse cx="70" cy="85" rx="10" ry="3.5" fill="#FFFFFF" opacity="0.4"/>
  <ellipse cx="100" cy="100" rx="12" ry="4" fill="#FFFFFF" opacity="0.5"/>
  <ellipse cx="130" cy="115" rx="9" ry="3.2" fill="#FFFFFF" opacity="0.4"/>
  <ellipse cx="160" cy="135" rx="11" ry="3.8" fill="#FFFFFF" opacity="0.5"/>
  
  <!-- Water ripples and waves -->
  <path d="M 30 55 Q 35 53 40 55 Q 45 57 50 55" stroke="#FFFFFF" stroke-width="0.8" fill="none" opacity="0.4"/>
  <path d="M 60 82 Q 65 80 70 82 Q 75 84 80 82" stroke="#FFFFFF" stroke-width="0.9" fill="none" opacity="0.4"/>
  <path d="M 90 97 Q 95 95 100 97 Q 105 99 110 97" stroke="#FFFFFF" stroke-width="1" fill="none" opacity="0.5"/>
  <path d="M 120 112 Q 125 110 130 112 Q 135 114 140 112" stroke="#FFFFFF" stroke-width="0.8" fill="none" opacity="0.4"/>
  <path d="M 150 132 Q 155 130 160 132 Q 165 134 170 132" stroke="#FFFFFF" stroke-width="0.9" fill="none" opacity="0.4"/>
  
  <!-- River banks -->
  <path d="M 15 45 Q 55 75 95 95 Q 135 115 175 145" stroke="#8B4513" stroke-width="3" fill="none"/>
  <path d="M 25 55 Q 65 85 105 105 Q 145 125 185 155" stroke="#8B4513" stroke-width="3" fill="none"/>
  
  <!-- Rocky riverbank areas -->
  <ellipse cx="35" cy="40" rx="6" ry="4" fill="#696969"/>
  <ellipse cx="35" cy="40" rx="5" ry="3.2" fill="#778899"/>
  <ellipse cx="35" cy="40" rx="3.8" ry="2.4" fill="#A9A9A9"/>
  
  <ellipse cx="80" cy="70" rx="7" ry="5" fill="#696969"/>
  <ellipse cx="80" cy="70" rx="5.8" ry="4.2" fill="#778899"/>
  <ellipse cx="80" cy="70" rx="4.4" ry="3.2" fill="#A9A9A9"/>
  
  <ellipse cx="120" cy="130" rx="5.5" ry="4.2" fill="#696969"/>
  <ellipse cx="120" cy="130" rx="4.6" ry="3.5" fill="#778899"/>
  <ellipse cx="120" cy="130" rx="3.5" ry="2.6" fill="#A9A9A9"/>
  
  <ellipse cx="165" cy="160" rx="6.5" ry="4.8" fill="#696969"/>
  <ellipse cx="165" cy="160" rx="5.4" ry="4" fill="#778899"/>
  <ellipse cx="165" cy="160" rx="4.1" ry="3" fill="#A9A9A9"/>
  
  <!-- River stones and pebbles -->
  <circle cx="45" cy="65" r="2.2" fill="#A9A9A9"/>
  <circle cx="75" cy="90" r="1.8" fill="#696969"/>
  <circle cx="105" cy="105" r="2.5" fill="#A9A9A9"/>
  <circle cx="135" cy="125" r="2" fill="#696969"/>
  <circle cx="155" cy="140" r="1.9" fill="#A9A9A9"/>
  
  <circle cx="50" cy="70" r="1.3" fill="#A9A9A9"/>
  <circle cx="85" cy="95" r="1.6" fill="#696969"/>
  <circle cx="115" cy="110" r="1.4" fill="#A9A9A9"/>
  <circle cx="145" cy="130" r="1.7" fill="#696969"/>
  <circle cx="170" cy="145" r="1.5" fill="#A9A9A9"/>
  
  <!-- Riverside vegetation -->
  <!-- Tall grasses and reeds -->
  <ellipse cx="25" cy="35" rx="2" ry="15" fill="#228B22"/>
  <ellipse cx="25" cy="35" rx="1.5" ry="14" fill="#32CD32"/>
  <ellipse cx="27" cy="38" rx="1.8" ry="12" fill="#228B22"/>
  <ellipse cx="27" cy="38" rx="1.3" ry="11" fill="#32CD32"/>
  <ellipse cx="23" cy="32" rx="1.5" ry="10" fill="#228B22"/>
  <ellipse cx="23" cy="32" rx="1.1" ry="9" fill="#32CD32"/>
  
  <ellipse cx="90" cy="60" rx="2.2" ry="16" fill="#228B22"/>
  <ellipse cx="90" cy="60" rx="1.7" ry="15" fill="#32CD32"/>
  <ellipse cx="92" cy="63" rx="2" ry="14" fill="#228B22"/>
  <ellipse cx="92" cy="63" rx="1.5" ry="13" fill="#32CD32"/>
  <ellipse cx="88" cy="57" rx="1.7" ry="11" fill="#228B22"/>
  <ellipse cx="88" cy="57" rx="1.2" ry="10" fill="#32CD32"/>
  
  <ellipse cx="175" cy="170" rx="2.5" ry="18" fill="#228B22"/>
  <ellipse cx="175" cy="170" rx="2" ry="17" fill="#32CD32"/>
  <ellipse cx="177" cy="173" rx="2.2" ry="15" fill="#228B22"/>
  <ellipse cx="177" cy="173" rx="1.7" ry="14" fill="#32CD32"/>
  <ellipse cx="173" cy="167" rx="2" ry="13" fill="#228B22"/>
  <ellipse cx="173" cy="167" rx="1.5" ry="12" fill="#32CD32"/>
  
  <!-- Cattails -->
  <ellipse cx="30" cy="25" rx="2.5" ry="4" fill="#8B4513"/>
  <ellipse cx="30" cy="25" rx="2" ry="3.2" fill="#A0522D"/>
  <ellipse cx="95" cy="50" rx="2.8" ry="4.5" fill="#8B4513"/>
  <ellipse cx="95" cy="50" rx="2.3" ry="3.8" fill="#A0522D"/>
  <ellipse cx="180" cy="160" rx="3" ry="5" fill="#8B4513"/>
  <ellipse cx="180" cy="160" rx="2.5" ry="4.2" fill="#A0522D"/>
  
  <!-- Willow branches hanging over river -->
  <path d="M 60 30 Q 65 45 70 60 Q 75 75 80 90" stroke="#228B22" stroke-width="2" fill="none"/>
  <path d="M 62 32 Q 67 47 72 62 Q 77 77 82 92" stroke="#32CD32" stroke-width="1.5" fill="none"/>
  
  <ellipse cx="68" cy="50" rx="3" ry="1.5" fill="#228B22"/>
  <ellipse cx="72" cy="65" rx="2.5" ry="1.2" fill="#32CD32"/>
  <ellipse cx="76" cy="80" rx="2.8" ry="1.4" fill="#228B22"/>
  
  <path d="M 140 90 Q 145 105 150 120 Q 155 135 160 150" stroke="#228B22" stroke-width="2.2" fill="none"/>
  <path d="M 142 92 Q 147 107 152 122 Q 157 137 162 152" stroke="#32CD32" stroke-width="1.7" fill="none"/>
  
  <ellipse cx="148" cy="110" rx="3.2" ry="1.6" fill="#228B22"/>
  <ellipse cx="152" cy="125" rx="2.7" ry="1.3" fill="#32CD32"/>
  <ellipse cx="156" cy="140" rx="3" ry="1.5" fill="#228B22"/>
  
  <!-- Fish in the river -->
  <ellipse cx="55" cy="70" rx="4" ry="2" fill="#FFA500" opacity="0.7"/>
  <ellipse cx="53" cy="70" rx="1.5" ry="1.2" fill="#FF8C00" opacity="0.7"/>
  <path d="M 59 70 L 62 68 L 62 72 Z" fill="#FFA500" opacity="0.7"/>
  <circle cx="53.5" cy="69.5" r="0.3" fill="#000000" opacity="0.7"/>
  
  <ellipse cx="110" cy="105" rx="3.5" ry="1.8" fill="#FF6347" opacity="0.6"/>
  <ellipse cx="108.2" cy="105" rx="1.3" ry="1" fill="#FF4500" opacity="0.6"/>
  <path d="M 113.5 105 L 116 103.5 L 116 106.5 Z" fill="#FF6347" opacity="0.6"/>
  <circle cx="108.7" cy="104.5" r="0.25" fill="#000000" opacity="0.6"/>
  
  <!-- Dragonflies over river -->
  <ellipse cx="85" cy="75" rx="2.5" ry="0.6" fill="#4169E1" opacity="0.8"/>
  <ellipse cx="83.8" cy="75" rx="1" ry="0.4" fill="#0000FF" opacity="0.8"/>
  <line x1="81.5" y1="75" x2="79" y2="74" stroke="#000000" stroke-width="0.4" opacity="0.8"/>
  <line x1="81.5" y1="75" x2="79" y2="76" stroke="#000000" stroke-width="0.4" opacity="0.8"/>
  <ellipse cx="86.5" cy="74.3" rx="2" ry="0.4" fill="#87CEEB" opacity="0.6"/>
  <ellipse cx="86.5" cy="75.7" rx="2" ry="0.4" fill="#87CEEB" opacity="0.6"/>
  
  <ellipse cx="125" cy="110" rx="2.3" ry="0.55" fill="#32CD32" opacity="0.8"/>
  <ellipse cx="124" cy="110" rx="0.9" ry="0.35" fill="#228B22" opacity="0.8"/>
  <line x1="122" y1="110" x2="119.8" y2="109.3" stroke="#000000" stroke-width="0.35" opacity="0.8"/>
  <line x1="122" y1="110" x2="119.8" y2="110.7" stroke="#000000" stroke-width="0.35" opacity="0.8"/>
  <ellipse cx="126.3" cy="109.5" rx="1.8" ry="0.35" fill="#98FB98" opacity="0.6"/>
  <ellipse cx="126.3" cy="110.5" rx="1.8" ry="0.35" fill="#98FB98" opacity="0.6"/>
  
  <!-- Birds near river -->
  <ellipse cx="65" cy="45" rx="3" ry="1.5" fill="#FFFFFF"/>
  <ellipse cx="65" cy="45" rx="2.5" ry="1.2" fill="#F8F8FF"/>
  <ellipse cx="63" cy="44" rx="1.2" ry="0.8" fill="#FFFFFF"/>
  <circle cx="62.5" cy="43.8" r="0.2" fill="#000000"/>
  <path d="M 61.8 43.8 L 61 43.5" stroke="#FFA500" stroke-width="0.3" fill="none"/>
  <ellipse cx="66.5" cy="45.5" rx="1.8" ry="0.6" fill="#F8F8FF"/>
  
  <!-- Butterflies -->
  <ellipse cx="40" cy="25" rx="2" ry="1.5" fill="#FF69B4" opacity="0.8"/>
  <ellipse cx="43" cy="25" rx="2" ry="1.5" fill="#FF1493" opacity="0.8"/>
  <ellipse cx="40" cy="28" rx="1.5" ry="1" fill="#FFB6C1" opacity="0.8"/>
  <ellipse cx="43" cy="28" rx="1.5" ry="1" fill="#FF69B4" opacity="0.8"/>
  <line x1="41.5" y1="25" x2="41.5" y2="30" stroke="#000000" stroke-width="0.4"/>
  <line x1="41.5" y1="25" x2="39.5" y2="23" stroke="#000000" stroke-width="0.3"/>
  <line x1="41.5" y1="25" x2="43.5" y2="23" stroke="#000000" stroke-width="0.3"/>
  
  <!-- Water foam and bubbles -->
  <circle cx="48" cy="67" r="0.6" fill="#FFFFFF" opacity="0.5"/>
  <circle cx="78" cy="87" r="0.4" fill="#FFFFFF" opacity="0.6"/>
  <circle cx="108" cy="102" r="0.5" fill="#FFFFFF" opacity="0.4"/>
  <circle cx="138" cy="122" r="0.3" fill="#FFFFFF" opacity="0.7"/>
  <circle cx="158" cy="137" r="0.4" fill="#FFFFFF" opacity="0.5"/>
  
  <!-- Small wildflowers along riverbank -->
  <circle cx="15" cy="60" r="1.2" fill="#FFD700"/>
  <circle cx="15" cy="60" r="0.9" fill="#FFA500"/>
  <circle cx="15" cy="60" r="0.5" fill="#FF8C00"/>
  
  <circle cx="185" cy="175" r="1" fill="#FF69B4"/>
  <circle cx="185" cy="175" r="0.7" fill="#FF1493"/>
  <circle cx="185" cy="175" r="0.4" fill="#FFFFFF"/>
  
  <circle cx="50" cy="30" r="1.1" fill="#9370DB"/>
  <circle cx="50" cy="30" r="0.8" fill="#8A2BE2"/>
  <circle cx="50" cy="30" r="0.4" fill="#FFFFFF"/>
  
  <!-- River name plate -->
  <rect x="75" y="190" width="50" height="8" fill="#4682B4" stroke="#191970" stroke-width="0.5"/>
  <text x="100" y="196" text-anchor="middle" font-family="Arial" font-size="6" fill="#FFFFFF">RIVER</text>
</svg>